<svg width="50" height="50" viewBox="0 0 50 50" fill="none" xmlns="http://www.w3.org/2000/svg">
<g id="bot 1" clip-path="url(#clip0_3420_5051)">
<g id="Flat">
<g id="Color">
<path id="Vector" d="M4.10156 19.1406V5.46875C4.10156 5.31335 4.03983 5.16431 3.92995 5.05443C3.82006 4.94454 3.67103 4.88281 3.51562 4.88281C3.36022 4.88281 3.21119 4.94454 3.1013 5.05443C2.99142 5.16431 2.92969 5.31335 2.92969 5.46875V19.1406C2.92969 19.296 2.99142 19.4451 3.1013 19.5549C3.21119 19.6648 3.36022 19.7266 3.51562 19.7266C3.67103 19.7266 3.82006 19.6648 3.92995 19.5549C4.03983 19.4451 4.10156 19.296 4.10156 19.1406Z" fill="#212121"/>
<path id="Vector_2" d="M46.4844 4.88281C46.329 4.88281 46.1799 4.94454 46.0701 5.05443C45.9602 5.16431 45.8984 5.31335 45.8984 5.46875V19.1406C45.8984 19.296 45.9602 19.4451 46.0701 19.5549C46.1799 19.6648 46.329 19.7266 46.4844 19.7266C46.6398 19.7266 46.7888 19.6648 46.8987 19.5549C47.0086 19.4451 47.0703 19.296 47.0703 19.1406V5.46875C47.0703 5.31335 47.0086 5.16431 46.8987 5.05443C46.7888 4.94454 46.6398 4.88281 46.4844 4.88281Z" fill="#212121"/>
<path id="Vector_3" d="M25.0069 4.29688C13.6151 4.29688 4.78076 14.9273 4.88271 25.9766L4.89677 30.3008C4.91331 35.3757 6.94091 40.2371 10.5353 43.8197C14.1296 47.4024 18.9976 49.4141 24.0726 49.4141H25.9413C31.0162 49.4141 35.8842 47.4024 39.4786 43.8197C43.0729 40.2371 45.1005 35.3757 45.1171 30.3008L45.1311 25.9766C45.2343 14.9273 36.3987 4.29688 25.0069 4.29688Z" fill="#FFC107"/>
<path id="Vector_4" d="M49.1354 24.8848C49.0314 21.7918 48.9596 19.6566 47.3205 18.0234C45.8322 16.5391 43.8553 16.2691 42.8838 16.2113C44.3624 19.2539 45.1263 22.5941 45.1174 25.977L45.1033 30.3016C45.0993 31.3613 45.0079 32.419 44.8299 33.4637C45.9664 33.2106 47.0023 32.6261 47.8064 31.784C49.3123 30.1437 49.242 28.0551 49.1354 24.8848Z" fill="#FFA000"/>
<path id="Vector_5" d="M4.88298 30.3012L4.86892 25.9766C4.85998 22.5937 5.62394 19.2535 7.10252 16.2109C6.13103 16.2688 4.15408 16.5398 2.6658 18.023C1.02517 19.6562 0.95486 21.7914 0.850953 24.8844C0.744313 28.0547 0.674 30.1434 2.18142 31.7848C2.98549 32.6267 4.02122 33.2113 5.15759 33.4645C4.97934 32.4194 4.8875 31.3614 4.88298 30.3012Z" fill="#FFA000"/>
<path id="Vector_6" d="M24.9996 45.3125C34.5617 45.3125 41.3668 38.3262 40.3594 28.9063C40.1813 27.1821 39.3717 25.5848 38.0865 24.4218C36.8013 23.2588 35.1313 22.6122 33.398 22.6066C29.1988 22.6184 29.1988 24.9504 24.9996 24.9504C20.8004 24.9504 20.8004 22.6184 16.6012 22.6066C14.8679 22.6122 13.1979 23.2588 11.9127 24.4218C10.6275 25.5848 9.81795 27.1821 9.63985 28.9063C8.63242 38.3262 15.4375 45.3125 24.9996 45.3125Z" fill="#424242"/>
<path id="Vector_7" d="M28.6032 34.4113C28.2688 34.0901 27.8224 33.9118 27.3587 33.9145C26.8951 33.9171 26.4507 34.1004 26.12 34.4254C25.989 34.5937 25.8214 34.73 25.6298 34.8238C25.4383 34.9176 25.2279 34.9665 25.0146 34.9668C24.8013 34.967 24.5908 34.9187 24.399 34.8253C24.2072 34.732 24.0393 34.5961 23.9079 34.4281C23.5775 34.1109 23.1364 33.9352 22.6784 33.9383C22.2205 33.9414 21.7818 34.1232 21.4558 34.4448C21.1298 34.7665 20.9422 35.2027 20.933 35.6606C20.9237 36.1185 21.0936 36.5619 21.4063 36.8965C21.8712 37.3876 22.4299 37.7805 23.0494 38.0519C23.6688 38.3233 24.3364 38.4677 25.0126 38.4766C25.6891 38.4679 26.3571 38.3237 26.9768 38.0522C27.5966 37.7808 28.1556 37.3878 28.6208 36.8965C28.945 36.5631 29.125 36.1154 29.1217 35.6503C29.1184 35.1852 28.9321 34.7401 28.6032 34.4113Z" fill="white"/>
<path id="Vector_8" d="M31.6406 27.0871C31.1749 27.0887 30.7287 27.2743 30.3994 27.6037C30.0701 27.933 29.8844 28.3792 29.8828 28.8449V31.5793C29.8844 32.045 30.0701 32.4912 30.3994 32.8206C30.7287 33.1499 31.1749 33.3356 31.6406 33.3371C31.8762 33.3339 32.1088 33.284 32.325 33.1903C32.5411 33.0966 32.7366 32.961 32.9 32.7914C33.0635 32.6217 33.1917 32.4213 33.2772 32.2018C33.3628 31.9823 33.404 31.748 33.3984 31.5125V28.9117C33.404 28.6762 33.3628 28.4419 33.2772 28.2224C33.1917 28.0029 33.0635 27.8025 32.9 27.6328C32.7366 27.4632 32.5411 27.3276 32.325 27.2339C32.1088 27.1402 31.8762 27.0903 31.6406 27.0871Z" fill="white"/>
<path id="Vector_9" d="M18.3589 27.0871C18.1233 27.0903 17.8907 27.1402 17.6746 27.2339C17.4584 27.3276 17.2629 27.4632 17.0995 27.6328C16.936 27.8025 16.8078 28.0029 16.7223 28.2224C16.6367 28.4419 16.5955 28.6762 16.6011 28.9117V31.5125C16.5955 31.748 16.6367 31.9823 16.7223 32.2018C16.8078 32.4213 16.936 32.6217 17.0995 32.7914C17.2629 32.961 17.4584 33.0966 17.6746 33.1903C17.8907 33.284 18.1233 33.3339 18.3589 33.3371C18.8246 33.3356 19.2708 33.1499 19.6001 32.8206C19.9295 32.4912 20.1152 32.045 20.1167 31.5793V28.8449C20.1152 28.3792 19.9295 27.933 19.6001 27.6037C19.2708 27.2743 18.8246 27.0887 18.3589 27.0871Z" fill="white"/>
<g id="Group">
<path id="Vector_10" d="M3.51562 6.44531C5.13365 6.44531 6.44531 5.13365 6.44531 3.51562C6.44531 1.8976 5.13365 0.585938 3.51562 0.585938C1.8976 0.585938 0.585938 1.8976 0.585938 3.51562C0.585938 5.13365 1.8976 6.44531 3.51562 6.44531Z" fill="#424242"/>
<path id="Vector_11" d="M46.4844 6.44531C48.1024 6.44531 49.4141 5.13365 49.4141 3.51562C49.4141 1.8976 48.1024 0.585938 46.4844 0.585938C44.8664 0.585938 43.5547 1.8976 43.5547 3.51562C43.5547 5.13365 44.8664 6.44531 46.4844 6.44531Z" fill="#424242"/>
<path id="Vector_12" d="M25.0072 4.29688C19.5229 4.29688 14.635 6.76523 11.0479 10.5539C12.3609 12.9677 13.9973 15.1908 15.9119 17.1617C16.3478 17.604 16.8675 17.955 17.4407 18.1942C18.0138 18.4333 18.6288 18.5559 19.2498 18.5547H30.7506C31.3716 18.5559 31.9866 18.4333 32.5597 18.1942C33.1328 17.955 33.6525 17.604 34.0885 17.1617C36.0057 15.1879 37.644 12.9612 38.9576 10.5434C35.3713 6.76016 30.4873 4.29688 25.0072 4.29688Z" fill="#424242"/>
</g>
<path id="Vector_13" d="M25 14.6484C26.2944 14.6484 27.3438 13.5991 27.3438 12.3047C27.3438 11.0103 26.2944 9.96094 25 9.96094C23.7056 9.96094 22.6562 11.0103 22.6562 12.3047C22.6562 13.5991 23.7056 14.6484 25 14.6484Z" fill="white"/>
</g>
</g>
</g>
<defs>
<clipPath id="clip0_3420_5051">
<rect width="50" height="50" fill="white"/>
</clipPath>
</defs>
</svg>