<svg width="317" height="180" viewBox="0 0 317 180" fill="none" xmlns="http://www.w3.org/2000/svg">
<g clip-path="url(#clip0_12206_2421)">
<path d="M309.548 151.711C308.402 142.497 302.692 133.42 293.906 130.421C297.371 139.904 297.37 150.308 293.904 159.79C292.553 163.442 290.671 167.364 291.941 171.045C292.732 173.335 294.665 175.087 296.826 176.183C298.987 177.279 301.385 177.801 303.753 178.313L304.219 178.698C307.978 170.209 310.694 160.924 309.548 151.711Z" fill="#F0F0F0"/>
<path d="M293.818 130.595C298.935 136.329 302.115 143.529 302.907 151.173C303.107 152.815 303.046 154.479 302.728 156.103C302.367 157.674 301.591 159.12 300.482 160.291C299.47 161.403 298.305 162.424 297.581 163.763C297.221 164.453 297.01 165.213 296.964 165.991C296.917 166.769 297.035 167.548 297.311 168.277C297.95 170.111 299.211 171.606 300.494 173.025C301.919 174.601 303.424 176.215 304.03 178.304C304.103 178.557 304.492 178.428 304.419 178.175C303.365 174.541 299.837 172.477 298.154 169.203C297.369 167.675 297.039 165.902 297.775 164.29C298.419 162.88 299.619 161.826 300.653 160.709C301.752 159.583 302.559 158.205 303.002 156.696C303.402 155.093 303.527 153.435 303.37 151.791C303.077 148.084 302.203 144.446 300.779 141.011C299.177 137.082 296.914 133.455 294.089 130.289C293.914 130.093 293.644 130.401 293.818 130.595Z" fill="white"/>
<path d="M302.798 148.696C304.062 148.39 305.176 147.643 305.941 146.59C306.706 145.538 307.072 144.248 306.973 142.95C306.952 142.688 306.544 142.708 306.564 142.971C306.658 144.179 306.318 145.38 305.603 146.359C304.889 147.338 303.849 148.029 302.669 148.308C302.413 148.369 302.543 148.757 302.798 148.696Z" fill="white"/>
<path d="M301.07 159.795C298.786 158.431 297.1 156.257 296.348 153.705C296.274 153.453 295.885 153.581 295.96 153.834C296.747 156.487 298.506 158.746 300.885 160.16C301.112 160.295 301.295 159.929 301.07 159.795Z" fill="white"/>
<path d="M298.798 137.469C298.333 137.69 297.821 137.792 297.308 137.766C296.794 137.74 296.295 137.586 295.855 137.32C295.63 137.182 295.448 137.549 295.671 137.685C296.158 137.978 296.71 138.146 297.277 138.176C297.845 138.206 298.411 138.097 298.926 137.858C298.976 137.839 299.018 137.802 299.042 137.754C299.066 137.706 299.071 137.651 299.056 137.599C299.039 137.548 299.002 137.506 298.954 137.481C298.905 137.457 298.849 137.453 298.798 137.469Z" fill="white"/>
<path d="M267.122 146.877C267.26 146.967 267.398 147.057 267.537 147.15C269.387 148.367 271.136 149.732 272.765 151.232C272.893 151.346 273.021 151.464 273.145 151.581C277.032 155.237 280.207 159.582 282.507 164.397C283.421 166.314 284.188 168.297 284.801 170.33C285.647 173.138 286.341 176.249 288.016 178.546C288.188 178.787 288.375 179.018 288.575 179.237H303.712C303.746 179.219 303.781 179.206 303.816 179.188L304.42 179.216C304.396 179.109 304.368 178.998 304.344 178.891C304.33 178.829 304.313 178.767 304.299 178.705C304.289 178.663 304.278 178.622 304.271 178.584C304.268 178.57 304.264 178.556 304.261 178.546C304.254 178.508 304.244 178.473 304.237 178.439C304.085 177.821 303.928 177.203 303.767 176.584C303.767 176.581 303.767 176.581 303.764 176.577C302.524 171.87 300.88 167.225 298.583 162.978C298.514 162.85 298.445 162.719 298.369 162.591C297.324 160.682 296.123 158.861 294.781 157.148C294.043 156.212 293.258 155.314 292.429 154.458C290.283 152.249 287.803 150.391 285.08 148.953C279.651 146.086 273.366 144.988 267.564 146.739C267.416 146.784 267.27 146.829 267.122 146.877Z" fill="#F0F0F0"/>
<path d="M267.156 147.069C274.694 148.566 281.568 152.4 286.802 158.027C287.951 159.218 288.904 160.583 289.627 162.071C290.285 163.543 290.537 165.165 290.356 166.767C290.217 168.265 289.902 169.781 290.13 171.286C290.258 172.055 290.547 172.787 290.978 173.437C291.409 174.086 291.973 174.636 292.632 175.053C294.247 176.132 296.153 176.567 298.032 176.927C300.119 177.328 302.292 177.71 304.034 179.013C304.245 179.171 304.477 178.835 304.267 178.677C301.237 176.41 297.177 176.885 293.863 175.285C292.316 174.538 290.985 173.32 290.602 171.59C290.267 170.076 290.591 168.513 290.745 166.998C290.944 165.437 290.758 163.852 290.203 162.379C289.558 160.859 288.659 159.46 287.544 158.241C285.078 155.458 282.19 153.08 278.986 151.194C275.34 149.022 271.35 147.489 267.188 146.661C266.93 146.61 266.9 147.019 267.156 147.069Z" fill="white"/>
<path d="M285.224 156.116C286.048 155.11 286.488 153.843 286.465 152.542C286.442 151.241 285.958 149.99 285.098 149.014C284.923 148.817 284.609 149.079 284.784 149.276C285.586 150.184 286.037 151.349 286.056 152.561C286.075 153.772 285.661 154.95 284.887 155.883C284.719 156.086 285.057 156.318 285.224 156.116Z" fill="white"/>
<path d="M290.527 166.017C287.882 166.304 285.227 165.583 283.091 163.998C282.879 163.841 282.646 164.177 282.858 164.334C285.084 165.979 287.849 166.724 290.6 166.42C290.862 166.391 290.787 165.988 290.527 166.017Z" fill="white"/>
<path d="M275.271 149.56C275.033 150.015 274.685 150.405 274.26 150.694C273.834 150.982 273.343 151.16 272.831 151.212C272.569 151.238 272.644 151.64 272.905 151.615C273.47 151.555 274.011 151.357 274.482 151.04C274.954 150.722 275.34 150.294 275.607 149.793C275.636 149.747 275.647 149.693 275.638 149.64C275.628 149.587 275.599 149.54 275.556 149.508C275.511 149.477 275.456 149.466 275.403 149.475C275.349 149.485 275.302 149.515 275.271 149.56Z" fill="white"/>
<path d="M5.5256 40.7514C8.5773 40.7514 11.0512 38.2775 11.0512 35.2258C11.0512 32.1741 8.5773 29.7002 5.5256 29.7002C2.4739 29.7002 0 32.1741 0 35.2258C0 38.2775 2.4739 40.7514 5.5256 40.7514Z" fill="#E4E4E4"/>
<path d="M282.842 40.7514C285.894 40.7514 288.368 38.2775 288.368 35.2258C288.368 32.1741 285.894 29.7002 282.842 29.7002C279.79 29.7002 277.316 32.1741 277.316 35.2258C277.316 38.2775 279.79 40.7514 282.842 40.7514Z" fill="#E4E4E4"/>
<path d="M284.568 34.8804H226.163V35.5711H284.568V34.8804Z" fill="#E4E4E4"/>
<path d="M210.794 34.8804H156.821V35.5711H210.794V34.8804Z" fill="#E4E4E4"/>
<path d="M141.452 34.8804H87.0225V35.5711H141.452V34.8804Z" fill="#E4E4E4"/>
<path d="M71.7184 34.8804H5.52539V35.5711H71.7184V34.8804Z" fill="#E4E4E4"/>
<path d="M81.1571 44.7229C79.6203 44.7229 78.1179 44.2672 76.8401 43.4133C75.5623 42.5595 74.5663 41.3459 73.9782 39.9261C73.3901 38.5062 73.2362 36.9439 73.536 35.4366C73.8358 33.9293 74.5759 32.5447 75.6626 31.458C76.7493 30.3713 78.1339 29.6313 79.6412 29.3314C81.1485 29.0316 82.7108 29.1855 84.1307 29.7736C85.5505 30.3617 86.7641 31.3577 87.6179 32.6355C88.4718 33.9133 88.9275 35.4157 88.9275 36.9525C88.9252 39.0126 88.1057 40.9877 86.649 42.4444C85.1923 43.9012 83.2172 44.7206 81.1571 44.7229Z" fill="#009933"/>
<path d="M79.4304 43.1688C77.8594 43.1688 76.3237 42.703 75.0174 41.8302C73.7112 40.9574 72.6931 39.7169 72.0919 38.2654C71.4907 36.814 71.3334 35.217 71.6399 33.6762C71.9464 32.1354 72.7029 30.72 73.8138 29.6092C74.9246 28.4983 76.3399 27.7418 77.8807 27.4353C79.4215 27.1289 81.0186 27.2862 82.47 27.8873C83.9214 28.4885 85.162 29.5066 86.0348 30.8129C86.9076 32.1191 87.3734 33.6548 87.3734 35.2258C87.371 37.3317 86.5334 39.3506 85.0443 40.8397C83.5552 42.3288 81.5363 43.1664 79.4304 43.1688ZM79.4304 27.9734C77.996 27.9734 76.5938 28.3988 75.4012 29.1957C74.2085 29.9926 73.279 31.1252 72.7301 32.4504C72.1811 33.7756 72.0375 35.2338 72.3174 36.6406C72.5972 38.0475 73.2879 39.3397 74.3022 40.354C75.3164 41.3682 76.6087 42.0589 78.0155 42.3388C79.4223 42.6186 80.8805 42.475 82.2057 41.9261C83.5309 41.3772 84.6636 40.4476 85.4605 39.255C86.2574 38.0623 86.6827 36.6602 86.6827 35.2258C86.6805 33.303 85.9158 31.4596 84.5562 30.1C83.1965 28.7404 81.3531 27.9756 79.4304 27.9734Z" fill="#3F3D56"/>
<path d="M79.2581 37.6432C79.1207 37.6432 78.9889 37.5886 78.8918 37.4914L75.9563 34.5559C75.908 34.5079 75.8697 34.4508 75.8435 34.3879C75.8173 34.325 75.8038 34.2575 75.8037 34.1894C75.8036 34.1213 75.817 34.0538 75.843 33.9908C75.8691 33.9279 75.9073 33.8707 75.9554 33.8225C76.0036 33.7743 76.0608 33.7361 76.1238 33.7101C76.1868 33.684 76.2542 33.6707 76.3224 33.6708C76.3905 33.6709 76.4579 33.6844 76.5208 33.7106C76.5837 33.7368 76.6408 33.7751 76.6889 33.8234L79.2581 36.3926L84.3671 31.2836C84.4643 31.1867 84.5959 31.1324 84.7331 31.1326C84.8703 31.1327 85.0019 31.1873 85.0989 31.2843C85.1959 31.3813 85.2505 31.5128 85.2506 31.65C85.2507 31.7872 85.1964 31.9189 85.0996 32.0161L79.6244 37.4914C79.5272 37.5886 79.3955 37.6432 79.2581 37.6432Z" fill="white"/>
<path d="M150.918 44.7229C149.381 44.7229 147.879 44.2672 146.601 43.4133C145.323 42.5595 144.327 41.3459 143.739 39.9261C143.151 38.5062 142.997 36.9439 143.297 35.4366C143.597 33.9293 144.337 32.5447 145.423 31.458C146.51 30.3713 147.895 29.6313 149.402 29.3314C150.909 29.0316 152.472 29.1855 153.891 29.7736C155.311 30.3617 156.525 31.3577 157.379 32.6355C158.232 33.9133 158.688 35.4157 158.688 36.9525C158.686 39.0126 157.866 40.9877 156.41 42.4444C154.953 43.9012 152.978 44.7206 150.918 44.7229Z" fill="#009933"/>
<path d="M149.191 43.1688C147.62 43.1688 146.084 42.703 144.778 41.8302C143.472 40.9574 142.454 39.7169 141.853 38.2654C141.251 36.814 141.094 35.217 141.401 33.6762C141.707 32.1354 142.464 30.72 143.575 29.6092C144.685 28.4983 146.101 27.7418 147.641 27.4353C149.182 27.1289 150.779 27.2862 152.231 27.8873C153.682 28.4885 154.923 29.5066 155.795 30.8129C156.668 32.1191 157.134 33.6548 157.134 35.2258C157.132 37.3317 156.294 39.3506 154.805 40.8397C153.316 42.3288 151.297 43.1664 149.191 43.1688ZM149.191 27.9734C147.757 27.9734 146.355 28.3988 145.162 29.1957C143.969 29.9926 143.04 31.1252 142.491 32.4504C141.942 33.7756 141.798 35.2338 142.078 36.6406C142.358 38.0475 143.049 39.3397 144.063 40.354C145.077 41.3682 146.369 42.0589 147.776 42.3388C149.183 42.6186 150.641 42.475 151.966 41.9261C153.292 41.3772 154.424 40.4476 155.221 39.255C156.018 38.0623 156.443 36.6602 156.443 35.2258C156.441 33.303 155.676 31.4596 154.317 30.1C152.957 28.7404 151.114 27.9756 149.191 27.9734Z" fill="#3F3D56"/>
<path d="M149.019 37.6432C148.881 37.6431 148.75 37.5885 148.653 37.4914L145.717 34.5559C145.669 34.5079 145.63 34.4507 145.604 34.3878C145.578 34.3249 145.565 34.2575 145.564 34.1894C145.564 34.1212 145.578 34.0538 145.604 33.9908C145.63 33.9278 145.668 33.8706 145.716 33.8225C145.764 33.7743 145.822 33.7361 145.885 33.7101C145.948 33.684 146.015 33.6707 146.083 33.6708C146.151 33.6708 146.219 33.6844 146.282 33.7106C146.345 33.7368 146.402 33.7751 146.45 33.8234L149.019 36.3926L154.128 31.2835C154.176 31.2353 154.233 31.197 154.296 31.1708C154.359 31.1447 154.426 31.1312 154.494 31.1311C154.562 31.131 154.63 31.1444 154.693 31.1704C154.756 31.1965 154.813 31.2347 154.861 31.2828C154.909 31.331 154.947 31.3882 154.973 31.4511C155 31.514 155.013 31.5815 155.013 31.6496C155.013 31.7177 154.999 31.7851 154.973 31.848C154.947 31.9109 154.909 31.968 154.86 32.0161L149.385 37.4914C149.288 37.5886 149.156 37.6431 149.019 37.6432Z" fill="white"/>
<path d="M220.333 44.7229C218.796 44.7229 217.294 44.2672 216.016 43.4133C214.738 42.5595 213.742 41.3459 213.154 39.9261C212.566 38.5062 212.412 36.9439 212.712 35.4366C213.012 33.9293 213.752 32.5447 214.838 31.458C215.925 30.3713 217.31 29.6313 218.817 29.3314C220.324 29.0316 221.887 29.1855 223.306 29.7736C224.726 30.3617 225.94 31.3577 226.794 32.6355C227.648 33.9133 228.103 35.4157 228.103 36.9525C228.101 39.0126 227.282 40.9877 225.825 42.4444C224.368 43.9012 222.393 44.7206 220.333 44.7229Z" fill="#F0F0F0"/>
<path d="M218.606 43.1688C217.035 43.1688 215.499 42.703 214.193 41.8302C212.887 40.9574 211.869 39.7169 211.268 38.2654C210.667 36.814 210.509 35.217 210.816 33.6762C211.122 32.1354 211.879 30.72 212.99 29.6092C214.1 28.4983 215.516 27.7418 217.057 27.4353C218.597 27.1289 220.194 27.2862 221.646 27.8873C223.097 28.4885 224.338 29.5066 225.211 30.8129C226.083 32.1191 226.549 33.6548 226.549 35.2258C226.547 37.3317 225.709 39.3506 224.22 40.8397C222.731 42.3288 220.712 43.1664 218.606 43.1688ZM218.606 27.9734C217.172 27.9734 215.77 28.3988 214.577 29.1957C213.384 29.9926 212.455 31.1252 211.906 32.4504C211.357 33.7756 211.213 35.2338 211.493 36.6406C211.773 38.0475 212.464 39.3397 213.478 40.354C214.492 41.3682 215.784 42.0589 217.191 42.3388C218.598 42.6186 220.056 42.475 221.381 41.9261C222.707 41.3772 223.839 40.4476 224.636 39.255C225.433 38.0623 225.858 36.6602 225.858 35.2258C225.856 33.303 225.092 31.4596 223.732 30.1C222.372 28.7404 220.529 27.9756 218.606 27.9734Z" fill="#CACACA"/>
<path d="M213.622 75.4643C212.085 75.4643 210.583 75.0086 209.305 74.1548C208.027 73.301 207.031 72.0874 206.443 70.6676C205.855 69.2477 205.701 67.6853 206.001 66.178C206.301 64.6707 207.041 63.2862 208.127 62.1995C209.214 61.1128 210.599 60.3727 212.106 60.0729C213.613 59.7731 215.176 59.9269 216.596 60.5151C218.015 61.1032 219.229 62.0991 220.083 63.377C220.937 64.6548 221.392 66.1571 221.392 67.694C221.39 69.7541 220.571 71.7292 219.114 73.1859C217.657 74.6426 215.682 75.462 213.622 75.4643Z" fill="#009933"/>
<path d="M213.104 70.1115C212.966 70.1114 212.835 70.0568 212.738 69.9597L209.802 67.0242C209.705 66.9271 209.65 66.7953 209.65 66.6579C209.65 66.5205 209.705 66.3888 209.802 66.2917C209.899 66.1945 210.031 66.1399 210.168 66.14C210.306 66.14 210.438 66.1946 210.535 66.2917L213.104 68.8609L218.213 63.7518C218.31 63.655 218.442 63.6007 218.579 63.6008C218.716 63.601 218.848 63.6555 218.945 63.7525C219.042 63.8496 219.096 63.9811 219.096 64.1183C219.097 64.2555 219.042 64.3871 218.945 64.4843L213.47 69.9597C213.373 70.0568 213.241 70.1114 213.104 70.1115Z" fill="white"/>
<path d="M230.973 175.67L226.789 175.024L227.294 158.577L233.469 159.532L230.973 175.67Z" fill="#9E616A"/>
<path d="M231.413 179.892L217.922 177.805L217.948 177.635C218.164 176.242 218.923 174.992 220.06 174.159C221.198 173.327 222.619 172.98 224.011 173.195L232.252 174.47L231.413 179.892Z" fill="#2F2E41"/>
<path d="M274.949 175.256L270.719 175.436L268.011 159.206L274.254 158.94L274.949 175.256Z" fill="#9E616A"/>
<path d="M276.203 179.311L262.563 179.892L262.556 179.719C262.496 178.311 262.997 176.937 263.951 175.899C264.904 174.861 266.23 174.244 267.638 174.184L275.969 173.829L276.203 179.311Z" fill="#2F2E41"/>
<path d="M266.62 78.4961C266.82 78.44 267.024 78.4019 267.231 78.3824L264.594 56.7978L255.646 37.8491C255.083 36.6571 254.993 35.296 255.394 34.0403C255.796 32.7846 256.658 31.7277 257.808 31.0829C258.957 30.4381 260.309 30.2532 261.59 30.5656C262.87 30.8781 263.985 31.6645 264.708 32.7664C267.054 36.337 268.827 40.2515 269.966 44.3687L273.725 57.9605L270.977 81.2691C271.082 81.9261 270.995 82.5995 270.727 83.2084C270.459 83.8173 270.02 84.3356 269.464 84.7011C268.908 85.0666 268.258 85.2636 267.593 85.2685C266.928 85.2734 266.275 85.0859 265.714 84.7286C265.153 84.3713 264.706 83.8594 264.429 83.2545C264.152 82.6496 264.055 81.9775 264.151 81.3191C264.247 80.6606 264.531 80.0439 264.969 79.5431C265.407 79.0422 265.981 78.6787 266.62 78.4961Z" fill="#9E616A"/>
<path d="M253.539 37.809C252.892 36.0497 252.959 34.1074 253.724 32.3966C254.49 30.6858 255.894 29.3419 257.636 28.6517C259.379 27.9615 261.322 27.9798 263.052 28.7026C264.781 29.4253 266.159 30.7953 266.893 32.5203L272.493 45.6926L261.188 58.6247L253.539 37.809Z" fill="#2F2E41"/>
<path d="M244.853 40.0605L252.451 27.2825C257.699 23.851 262.017 26.0948 264.319 31.9276C266.325 37.0097 267.882 43.4392 266.956 50.0757C264.882 64.9415 263.157 66.6525 263.157 66.6525C263.157 66.6525 276.108 80.9845 273.345 99.288L275.417 168.358L269.201 168.013L260.567 128.297L254.005 103.432L242.609 133.823L232.594 169.049L225.687 167.667L229.831 128.643L235.702 83.7473L242.436 66.6525L239.155 54.7379C239.155 54.7379 235.356 46.4495 244.853 40.0605Z" fill="#2F2E41"/>
<path d="M219.606 58.3102C219.745 58.4637 219.871 58.6295 219.98 58.8054L238.112 46.8021L251.067 30.3309C251.881 29.2947 253.059 28.6061 254.361 28.4039C255.664 28.2017 256.995 28.5011 258.086 29.2415C259.176 29.982 259.945 31.1085 260.238 32.3938C260.531 33.6791 260.325 35.0275 259.663 36.1672C257.516 39.8606 254.807 43.1966 251.632 46.055L241.152 55.491L219.071 63.4463C218.531 63.8342 217.89 64.0575 217.225 64.0895C216.56 64.1215 215.901 63.9608 215.325 63.6267C214.75 63.2925 214.283 62.7993 213.982 62.2062C213.68 61.6131 213.556 60.9455 213.625 60.2837C213.694 59.6219 213.952 58.9941 214.37 58.4758C214.787 57.9576 215.345 57.5709 215.977 57.3624C216.609 57.1539 217.288 57.1324 217.931 57.3006C218.575 57.4687 219.157 57.8193 219.606 58.3102Z" fill="#9E616A"/>
<path d="M250.16 28.427C251.445 27.0625 253.213 26.2542 255.085 26.1747C256.958 26.0952 258.788 26.7507 260.184 28.0013C261.58 29.252 262.432 30.9987 262.558 32.8688C262.684 34.7389 262.074 36.5842 260.859 38.0109L251.577 48.9066L234.956 44.5713L250.16 28.427Z" fill="#2F2E41"/>
<path d="M256.329 21.4819C261.305 18.7621 263.133 12.524 260.414 7.54866C257.694 2.57332 251.456 0.744821 246.48 3.46459C241.505 6.18435 239.676 12.4225 242.396 17.3978C245.116 22.3732 251.354 24.2017 256.329 21.4819Z" fill="#9E616A"/>
<path d="M249.688 2.01099e-10H256.32C260.668 2.01099e-10 264.193 3.96528 264.193 8.85672L263.886 20.721C259.188 21.3054 254.593 22.5344 250.231 24.3733L249.612 21.7299L248.391 25.2113C247.305 25.7374 246.228 26.3128 245.16 26.9373C246.406 21.0832 246.919 15.2428 246.064 10.7058H243.817V8.24761L243.055 10.7058H238.982C238.982 9.29994 239.259 7.90777 239.797 6.60888C240.335 5.30998 241.124 4.12978 242.118 3.13565C243.112 2.14152 244.292 1.35293 245.591 0.814915C246.89 0.276901 248.282 -8.61675e-06 249.688 2.01099e-10Z" fill="#2F2E41"/>
<path d="M316.654 179.927H185.076C184.984 179.927 184.896 179.891 184.832 179.826C184.767 179.761 184.73 179.674 184.73 179.582C184.73 179.49 184.767 179.402 184.832 179.338C184.896 179.273 184.984 179.237 185.076 179.237H316.654C316.746 179.237 316.834 179.273 316.898 179.338C316.963 179.402 317 179.49 317 179.582C317 179.674 316.963 179.761 316.898 179.826C316.834 179.891 316.746 179.927 316.654 179.927Z" fill="#CACACA"/>
<path d="M79.4303 82.1934C79.3387 82.1934 79.2509 82.157 79.1861 82.0922C79.1213 82.0275 79.085 81.9396 79.085 81.848V43.1688C79.085 43.0772 79.1213 42.9894 79.1861 42.9246C79.2509 42.8599 79.3387 42.8235 79.4303 42.8235C79.5219 42.8235 79.6097 42.8599 79.6745 42.9246C79.7393 42.9894 79.7757 43.0772 79.7757 43.1688V81.848C79.7757 81.9396 79.7393 82.0275 79.6745 82.0922C79.6097 82.157 79.5219 82.1934 79.4303 82.1934Z" fill="#3F3D56"/>
<path d="M55.0704 88.1956C54.4892 88.1956 53.9318 88.4264 53.5208 88.8374C53.1098 89.2484 52.8789 89.8058 52.8789 90.387C52.8789 90.9683 53.1098 91.5257 53.5208 91.9366C53.9318 92.3476 54.4892 92.5785 55.0704 92.5785H103.799C104.38 92.5775 104.936 92.3461 105.346 91.9353C105.756 91.5244 105.987 90.9676 105.987 90.387C105.987 89.8065 105.756 89.2497 105.346 88.8388C104.936 88.4279 104.38 88.1966 103.799 88.1956H55.0704Z" fill="#E4E4E4"/>
<path d="M68.1365 98.5815C67.8487 98.5809 67.5636 98.637 67.2975 98.7466C67.0314 98.8562 66.7895 99.0171 66.5856 99.2201C66.3816 99.4232 66.2197 99.6645 66.109 99.9301C65.9983 100.196 65.941 100.481 65.9404 100.768C65.9398 101.056 65.9959 101.341 66.1055 101.607C66.2151 101.874 66.376 102.115 66.579 102.319C66.7821 102.523 67.0233 102.685 67.289 102.796C67.5546 102.907 67.8395 102.964 68.1273 102.965H90.7333C91.3145 102.965 91.8719 102.734 92.2829 102.323C92.6939 101.912 92.9248 101.354 92.9248 100.773C92.9248 100.192 92.6939 99.6344 92.2829 99.2234C91.8719 98.8124 91.3145 98.5815 90.7333 98.5815H68.1365Z" fill="#E4E4E4"/>
<path d="M125.867 88.1956C125.286 88.1956 124.729 88.4264 124.318 88.8374C123.907 89.2484 123.676 89.8058 123.676 90.387C123.676 90.9683 123.907 91.5257 124.318 91.9366C124.729 92.3476 125.286 92.5785 125.867 92.5785H174.596C175.177 92.5775 175.733 92.3461 176.143 91.9353C176.553 91.5244 176.784 90.9676 176.784 90.387C176.784 89.8065 176.553 89.2497 176.143 88.8388C175.733 88.4279 175.177 88.1966 174.596 88.1956H125.867Z" fill="#E4E4E4"/>
<path d="M138.933 98.5815C138.646 98.5809 138.361 98.637 138.094 98.7466C137.828 98.8562 137.586 99.0171 137.382 99.2201C137.179 99.4232 137.017 99.6645 136.906 99.9301C136.795 100.196 136.738 100.481 136.737 100.768C136.737 101.056 136.793 101.341 136.902 101.607C137.012 101.874 137.173 102.115 137.376 102.319C137.579 102.523 137.82 102.685 138.086 102.796C138.352 102.907 138.636 102.964 138.924 102.965H161.53C162.111 102.965 162.669 102.734 163.08 102.323C163.491 101.912 163.722 101.354 163.722 100.773C163.722 100.192 163.491 99.6344 163.08 99.2234C162.669 98.8124 162.111 98.5815 161.53 98.5815H138.933Z" fill="#E4E4E4"/>
<path d="M150.227 82.1934C150.136 82.1934 150.048 82.157 149.983 82.0922C149.918 82.0275 149.882 81.9396 149.882 81.848V43.1688C149.882 43.0772 149.918 42.9894 149.983 42.9246C150.048 42.8599 150.136 42.8235 150.227 42.8235C150.319 42.8235 150.407 42.8599 150.471 42.9246C150.536 42.9894 150.573 43.0772 150.573 43.1688V81.848C150.573 81.9396 150.536 82.0275 150.471 82.0922C150.407 82.157 150.319 82.1934 150.227 82.1934Z" fill="#3F3D56"/>
</g>
<defs>
<clipPath id="clip0_12206_2421">
<rect width="317" height="179.927" fill="white"/>
</clipPath>
</defs>
</svg>